<?xml version="1.0" encoding="utf-8"?>
<!-- Generator: Adobe Illustrator 19.0.1, SVG Export Plug-In . SVG Version: 6.00 Build 0)  -->
<svg version="1.1" id="Layer_1" xmlns="http://www.w3.org/2000/svg" xmlns:xlink="http://www.w3.org/1999/xlink" x="0px" y="0px"
	 viewBox="0 0 120 110.4" style="enable-background:new 0 0 120 110.4;" xml:space="preserve">
<style type="text/css">
	.st0{fill:#0E94C0;}
</style>
<g>
	<path class="st0" d="M116.3,33.5 M116.3,33.5L116.3,33.5l-11.7,0c-1.9,0-3.4,1.5-3.4,3.4v10.9c0,0.7,0.6,1.1,1.2,1.1
		c0.3,0,0.6-0.1,0.8-0.3l3.4-2.7h9.7c1.9,0,3.4-1.6,3.4-3.5v-5.7C119.7,34.9,118.2,33.5,116.3,33.5z"/>
	<path class="st0" d="M99.8,72.7 M99.8,72.7L99.8,72.7l-9.8,0c-1.6,0-2.8,1.3-2.8,2.8v9.1c0,0.6,0.5,1,1,1c0.2,0,0.5-0.1,0.7-0.3
		l2.8-2.3h8.1c1.6,0,2.8-1.3,2.8-2.9v-4.7C102.6,73.9,101.3,72.7,99.8,72.7z"/>
	<path class="st0" d="M87,93.8 M87,93.8L87,93.8l-7.8,0c-1.2,0-2.2,1-2.2,2.3v7.2c0,0.5,0.4,0.8,0.8,0.8c0.2,0,0.4-0.1,0.5-0.2
		l2.2-1.8h6.4c1.2,0,2.2-1.1,2.2-2.3V96C89.3,94.8,88.3,93.8,87,93.8z"/>
	<path class="st0" d="M101.2,20.6 M101.2,20.6L101.2,20.6l-9.4,0c-1.5,0-2.7,1.2-2.7,2.7v8.8c0,0.6,0.5,0.9,1,0.9
		c0.2,0,0.5-0.1,0.7-0.3l2.7-2.2h7.8c1.5,0,2.7-1.3,2.7-2.8v-4.5C104,21.8,102.7,20.6,101.2,20.6z"/>
	<path class="st0" d="M68.5,4.2 M68.5,4.2L68.5,4.2l-7.5,0c-1.2,0-2.2,1-2.2,2.2v7c0,0.4,0.4,0.7,0.8,0.7c0.2,0,0.4-0.1,0.5-0.2
		l2.2-1.7h6.2c1.2,0,2.2-1,2.2-2.2V6.3C70.6,5.1,69.6,4.2,68.5,4.2z"/>
	<path class="st0" d="M87.2,40.6 M85.5,42.2v2.9c0,1,0.8,1.8,1.7,1.8h5l1.7,1.4c0.1,0.1,0.3,0.2,0.4,0.2c0.3,0,0.6-0.2,0.6-0.6v-5.6
		c0-1-0.8-1.7-1.7-1.7h-6l0,0C86.3,40.6,85.5,41.3,85.5,42.2z"/>
	<path class="st0" d="M75.9,10.2 M74,12.1v3.1c0,1,0.8,1.9,1.9,1.9h5.4l1.9,1.5c0.1,0.1,0.3,0.2,0.5,0.2c0.3,0,0.7-0.3,0.7-0.6v-6.1
		c0-1-0.8-1.9-1.9-1.9h-6.5l0,0C74.9,10.2,74,11,74,12.1z"/>
	<path class="st0" d="M94.5,53.6 M90.5,57.4V64c0,2.2,1.7,4,3.9,4h11.2l3.9,3.1c0.3,0.3,0.6,0.4,1,0.4c0.7,0,1.4-0.5,1.4-1.3V57.6
		c0-2.2-1.7-3.9-3.9-3.9H94.5l0,0C92.4,53.6,90.6,55.3,90.5,57.4z"/>
	<path class="st0" d="M49.3,0.2 M49.3,0.2L49.3,0.2l-11.7,0c-1.9,0-3.4,1.5-3.4,3.4v10.9c0,0.7,0.6,1.1,1.2,1.1
		c0.3,0,0.6-0.1,0.8-0.3l3.4-2.7h9.7c1.9,0,3.4-1.6,3.4-3.5V3.4C52.7,1.6,51.2,0.2,49.3,0.2z"/>
	<path class="st0" d="M23.8,75.3 M23.8,75.3L23.8,75.3l-11.9,0c-1.9,0-3.4,1.6-3.4,3.5v11.1C8.4,90.6,9,91,9.7,91
		c0.3,0,0.6-0.1,0.8-0.3l3.5-2.8h9.9c1.9,0,3.4-1.6,3.4-3.5v-5.8C27.2,76.8,25.6,75.3,23.8,75.3z"/>
	<path class="st0" d="M34.4,92.7 M34.4,92.7L34.4,92.7l-9.5,0c-1.5,0-2.7,1.3-2.7,2.8v8.8c0,0.6,0.5,0.9,1,0.9
		c0.2,0,0.5-0.1,0.7-0.3l2.7-2.2h7.8c1.5,0,2.7-1.3,2.7-2.8v-4.6C37.2,93.8,35.9,92.7,34.4,92.7z"/>
	<path class="st0" d="M44,100.1 M41.8,102.3v3.7c0,1.2,1,2.3,2.2,2.3h6.4l2.2,1.8c0.2,0.2,0.3,0.2,0.5,0.2c0.4,0,0.8-0.3,0.8-0.8
		v-7.2c0-1.2-1-2.2-2.2-2.2H44l0,0C42.8,100.1,41.8,101.1,41.8,102.3z"/>
	<path class="st0" d="M61.6,94.6 M59.5,96.6v3.5c0,1.1,0.9,2.1,2.1,2.1h5.9l2.1,1.7c0.1,0.1,0.3,0.2,0.5,0.2c0.4,0,0.7-0.3,0.7-0.7
		v-6.7c0-1.1-0.9-2.1-2.1-2.1h-7.1l0,0C60.5,94.6,59.5,95.4,59.5,96.6z"/>
	<path class="st0" d="M27.4,15.6 M27.4,15.6L27.4,15.6l-9.4,0c-1.5,0-2.7,1.2-2.7,2.7v8.8c0,0.6,0.5,0.9,1,0.9
		c0.2,0,0.5-0.1,0.7-0.3l2.7-2.2h7.8c1.5,0,2.7-1.3,2.7-2.8v-4.5C30.1,16.8,28.9,15.6,27.4,15.6z"/>
	<path class="st0" d="M5.5,40.6 M3.7,42.2v2.9c0,1,0.8,1.8,1.7,1.8h5l1.7,1.4c0.1,0.1,0.3,0.2,0.4,0.2c0.3,0,0.6-0.2,0.6-0.6v-5.6
		c0-1-0.8-1.7-1.7-1.7h-6l0,0C4.5,40.6,3.7,41.3,3.7,42.2z"/>
	<path class="st0" d="M28.3,35.2 M28.3,35.2L28.3,35.2l-9.1,0c-1.4,0-2.6,1.2-2.6,2.6v8.5c0,0.5,0.5,0.9,0.9,0.9
		c0.2,0,0.5-0.1,0.6-0.3l2.6-2.1h7.5c1.4,0,2.6-1.2,2.6-2.7v-4.4C30.9,36.3,29.7,35.2,28.3,35.2z"/>
	<path class="st0" d="M4.2,53.6 M0.3,57.4V64c0,2.2,1.7,4,3.9,4h11.2l3.9,3.1c0.3,0.3,0.6,0.4,1,0.4c0.7,0,1.4-0.5,1.4-1.3V57.6
		c0-2.2-1.7-3.9-3.9-3.9H4.2l0,0C2.1,53.6,0.3,55.3,0.3,57.4z"/>
	<path class="st0" d="M77.4,21H40.1c-2.4,0-4.3,2-4.3,4.3v60.2c0,2.4,2,4.3,4.3,4.3h37.2c2.4,0,4.3-2,4.3-4.3V25.4
		C81.7,23,79.8,21,77.4,21z M58.8,86.7c-1.4,0-2.5-1.1-2.5-2.5c0-1.4,1.1-2.5,2.5-2.5c1.4,0,2.5,1.1,2.5,2.5
		C61.2,85.6,60.1,86.7,58.8,86.7z M77.6,80.4H39.9c-0.3,0-0.6-0.3-0.6-0.6s0.3-0.6,0.6-0.6h37.6c0.3,0,0.6,0.3,0.6,0.6
		S77.9,80.4,77.6,80.4z M43.5,60.7v-18c0-3.1,2.5-5.6,5.6-5.6h19.3l0,0c3.1,0,5.6,2.4,5.7,5.4v9.4c0,3.1-2.5,5.7-5.6,5.7h-16
		L46.9,62c-0.4,0.4-0.9,0.6-1.4,0.6C44.5,62.6,43.5,61.8,43.5,60.7z M77.6,28.1H39.9c-0.3,0-0.6-0.3-0.6-0.6c0-0.3,0.3-0.6,0.6-0.6
		h37.6c0.3,0,0.6,0.3,0.6,0.6C78.2,27.8,77.9,28.1,77.6,28.1z"/>
</g>
</svg>
