<?xml version="1.0" encoding="utf-8"?>
<!-- Generator: Adobe Illustrator 19.0.1, SVG Export Plug-In . SVG Version: 6.00 Build 0)  -->
<svg version="1.1" id="Layer_1" xmlns="http://www.w3.org/2000/svg" xmlns:xlink="http://www.w3.org/1999/xlink" x="0px" y="0px"
	 viewBox="0 0 120 74" style="enable-background:new 0 0 120 74;" xml:space="preserve">
<style type="text/css">
	.st0{fill:#0E94C0;}
</style>
<g>
	<path class="st0" d="M101,0.2H19c-3.5,0-5.1,4.4-2.4,6.6l39.2,31.7c2.5,2,6,2,8.5,0l39.2-31.7C106.1,4.6,104.6,0.2,101,0.2z"/>
	<path class="st0" d="M64.3,52.3c-2.5,2-6,2-8.4,0L7.3,13.6c-2.8-2.2-6.8-0.2-6.8,3.3v44.7c0,6.7,5.5,12.1,12.1,12.1h94.9
		c6.7,0,12.1-5.5,12.1-12.1V16.9c0-3.5-4.1-5.5-6.8-3.3L64.3,52.3z"/>
</g>
</svg>
